<svg version="1.1" id="Layer_1" xmlns="http://www.w3.org/2000/svg" xmlns:xlink="http://www.w3.org/1999/xlink" x="0px" y="0px"
	 width="176px" height="22px" viewBox="0 0 176 22" enable-background="new 0 0 176 22" xml:space="preserve">
<g>
	<path d="M15.932,21.303h-2.365v-9.461H2.711v9.461H0.346V1.083h2.365v8.682h10.855V1.083h2.365V21.303z"/>
	<path d="M34.057,21.303l-2.365-6.412h-8.066l-2.447,6.412h-2.406l7.766-20.262h2.42l7.533,20.262H34.057z M30.926,12.909
		c-1.923-5.587-2.985-8.727-3.186-9.42l-3.322,9.42H30.926z"/>
	<path d="M38.948,17.967c2.105,1.039,4.361,1.559,6.768,1.559c2.962,0,4.443-1.349,4.443-4.047c0-0.875-0.235-1.583-0.704-2.126
		c-0.47-0.542-1.324-0.968-2.563-1.278l-4.02-1.012c-3.072-0.774-4.607-2.415-4.607-4.922c0-1.923,0.661-3.352,1.982-4.286
		c1.321-0.934,3.149-1.401,5.482-1.401c1.221,0,2.365,0.132,3.432,0.396c1.066,0.265,1.959,0.62,2.68,1.066l-0.684,1.928
		c-0.611-0.337-1.42-0.638-2.427-0.902c-1.007-0.264-2.026-0.396-3.056-0.396c-3.3,0-4.949,1.144-4.949,3.432
		c0,0.775,0.253,1.397,0.759,1.866c0.506,0.47,1.265,0.827,2.276,1.073l3.842,0.93c1.641,0.392,2.885,1.019,3.732,1.88
		s1.271,2.085,1.271,3.671c0,2.06-0.631,3.612-1.894,4.655c-1.263,1.044-2.979,1.565-5.147,1.565c-1.623,0-3.065-0.167-4.327-0.499
		c-1.263-0.333-2.263-0.727-3.001-1.183L38.948,17.967z"/>
	<path d="M69.473,21.303l-2.365-6.412h-8.066l-2.447,6.412h-2.406l7.766-20.262h2.42l7.533,20.262H69.473z M66.342,12.909
		c-1.923-5.587-2.985-8.727-3.186-9.42l-3.322,9.42H66.342z"/>
	<path d="M90.716,21.303h-2.68l-10.5-15.914l-0.684-0.943c0.073,1.914,0.109,3.623,0.109,5.127v11.73h-2.215V1.083h2.639
		l10.527,15.914l0.697,0.943c-0.064-2.907-0.096-4.589-0.096-5.045V1.083h2.201V21.303z"/>
	<path d="M118.147,21.303h-2.898l-7.738-9.652l-1.846,1.627v8.025h-2.379V1.083h2.379v9.926l8.887-9.926h2.967l-8.203,9.105
		L118.147,21.303z"/>
	<path d="M136.286,21.303h-2.365v-9.461h-10.855v9.461H120.7V1.083h2.365v8.682h10.855V1.083h2.365V21.303z"/>
	<path d="M154.411,21.303l-2.365-6.412h-8.066l-2.447,6.412h-2.406l7.766-20.262h2.42l7.533,20.262H154.411z M151.28,12.909
		c-1.923-5.587-2.985-8.727-3.186-9.42l-3.322,9.42H151.28z"/>
	<path d="M175.653,21.303h-2.68l-10.5-15.914l-0.684-0.943c0.073,1.914,0.109,3.623,0.109,5.127v11.73h-2.215V1.083h2.639
		l10.527,15.914l0.697,0.943c-0.064-2.907-0.096-4.589-0.096-5.045V1.083h2.201V21.303z"/>
</g>
</svg>
