<?xml version="1.0" encoding="utf-8"?>
<!-- Generator: Adobe Illustrator 16.0.0, SVG Export Plug-In . SVG Version: 6.00 Build 0)  -->
<!DOCTYPE svg PUBLIC "-//W3C//DTD SVG 1.1//EN" "http://www.w3.org/Graphics/SVG/1.1/DTD/svg11.dtd">
<svg version="1.1" id="Layer_1" xmlns="http://www.w3.org/2000/svg" xmlns:xlink="http://www.w3.org/1999/xlink" x="0px" y="0px"
	 width="175.25px" height="25.75px" viewBox="0 0 175.25 25.75" enable-background="new 0 0 175.25 25.75" xml:space="preserve">
<text transform="matrix(1 0 0 1 0.25 22.625)" font-family="'OpenSans-Semibold'" font-size="26.4318">HASANKHAN</text>
<g display="none">
	<g display="inline">
		<path d="M1.109,21.581c0.2-0.3,0.4-0.7,0.7-1s0.6-0.399,0.9-0.2c0.1,0.1,2.1,1.7,4,1.7c1.8,0,2.9-1.101,2.9-2.399
			c0-1.5-1.3-2.5-3.8-3.5c-2.6-1.1-4.6-2.4-4.6-5.4c0-2,1.5-4.7,5.6-4.7c2.5,0,4.4,1.3,4.7,1.5c0.2,0.1,0.4,0.5,0.2,0.9
			c-0.2,0.3-0.4,0.7-0.6,1c-0.2,0.3-0.5,0.5-0.9,0.3c-0.4-0.2-2.1-1.3-3.6-1.3c-2.1,0-2.9,1.3-2.9,2.3c0,1.4,1.1,2.3,3.2,3.2
			c2.9,1.2,5.5,2.6,5.5,5.701c0,2.6-2.4,4.799-5.7,4.799c-3.1,0-5.1-1.6-5.5-2C1.009,22.182,0.909,22.081,1.109,21.581z"/>
		<path d="M13.509,23.48l7.8-17.1c0.1-0.2,0.3-0.3,0.4-0.3h0.3c0.1,0,0.4,0.1,0.4,0.3l7.7,17.1c0.2,0.301-0.1,0.701-0.4,0.701h-1.6
			c-0.3,0-0.5-0.201-0.6-0.4l-1.6-3.5h-8.3c-0.5,1.199-1,2.3-1.5,3.5c-0.1,0.199-0.3,0.4-0.6,0.4h-1.6
			C13.609,24.182,13.409,23.881,13.509,23.48z M25.009,18.081l-3.1-7h-0.1l-3.1,7H25.009z"/>
		<path d="M32.709,6.881c0-0.3,0.2-0.5,0.5-0.5h6.9c3,0,5.5,2.4,5.5,5.4c0,2.3-1.5,4.3-3.8,5.2l3.5,6.4c0.2,0.301,0,0.7-0.4,0.7h-2
			c-0.2,0-0.4-0.101-0.4-0.2l-3.4-6.7h-3.8v6.5c0,0.299-0.2,0.5-0.5,0.5h-1.7c-0.3,0-0.5-0.201-0.5-0.5V6.881H32.709z
			 M39.909,14.981c1.7,0,3.1-1.4,3.1-3.1c0-1.7-1.4-3-3.1-3h-4.5v6.2h4.5V14.981z"/>
		<path d="M47.209,23.48l7.8-17.1c0.1-0.2,0.3-0.3,0.4-0.3h0.3c0.1,0,0.4,0.1,0.4,0.3l7.7,17.1c0.2,0.301-0.1,0.701-0.4,0.701h-1.6
			c-0.3,0-0.5-0.201-0.6-0.4l-1.6-3.5h-8.3c-0.5,1.199-1,2.3-1.5,3.5c-0.1,0.199-0.3,0.4-0.6,0.4h-1.6
			C47.309,24.182,47.109,23.881,47.209,23.48z M58.709,18.081l-3.1-7h-0.1l-3.1,7H58.709z"/>
		<path d="M70.809,21.581c0.2-0.3,0.4-0.7,0.7-1c0.3-0.3,0.6-0.399,0.9-0.2c0.2,0.1,2.1,1.801,4.1,1.801c1.8,0,2.9-1.101,2.9-2.4
			c0-1.5-1.3-2.5-3.8-3.5c-2.6-1.1-4.6-2.4-4.6-5.4c0-2,1.5-4.7,5.6-4.7c2.5,0,4.4,1.3,4.7,1.5c0.2,0.1,0.4,0.5,0.2,0.9
			c-0.2,0.3-0.4,0.7-0.6,1c-0.2,0.3-0.5,0.5-0.9,0.3c-0.2-0.1-2-1.3-3.4-1.3c-2.1,0-2.9,1.3-2.9,2.3c0,1.4,1.1,2.3,3.2,3.2
			c2.9,1.2,5.5,2.6,5.5,5.7c0,2.6-2.4,4.8-5.7,4.8c-3.1,0-5.1-1.601-5.5-2S70.609,22.081,70.809,21.581z"/>
		<path d="M93.409,6.181c5.1,0,9.101,4.1,9.101,9.2c0,5.1-4.1,9.1-9.101,9.1c-5,0-9.1-4-9.1-9.1
			C84.309,10.281,88.409,6.181,93.409,6.181z M93.409,21.881c3.6,0,6.6-2.9,6.6-6.6c0-3.6-3-6.6-6.6-6.6s-6.6,3-6.6,6.6
			C86.909,18.98,89.809,21.881,93.409,21.881z"/>
		<path d="M106.01,6.881c0-0.3,0.199-0.5,0.5-0.5h1.699c0.301,0,0.5,0.2,0.5,0.5v10.5c0,2.5,1.6,4.5,4.201,4.5
			c2.6,0,4.299-2,4.299-4.5v-10.5c0-0.3,0.201-0.5,0.5-0.5h1.701c0.299,0,0.5,0.2,0.5,0.5v10.7c0,3.899-2.9,6.899-6.9,6.899
			s-6.9-3-6.9-6.899v-10.7H106.01z"/>
		<path d="M124.51,6.881c0-0.3,0.199-0.5,0.5-0.5h10.199c0.301,0,0.5,0.2,0.5,0.5v1.4c0,0.3-0.199,0.5-0.5,0.5h-8v5.2h6.801
			c0.299,0,0.5,0.2,0.5,0.5v1.4c0,0.3-0.201,0.5-0.5,0.5h-6.801v5.5h8c0.301,0,0.5,0.2,0.5,0.5v1.4c0,0.3-0.199,0.5-0.5,0.5H125.01
			c-0.301,0-0.5-0.2-0.5-0.5V6.881z"/>
		<path d="M139.51,6.881c0-0.3,0.199-0.5,0.5-0.5h1.699c0.301,0,0.5,0.2,0.5,0.5v16.801c0,0.299-0.199,0.5-0.5,0.5h-1.699
			c-0.301,0-0.5-0.201-0.5-0.5V6.881z"/>
		<path d="M147.01,6.881c0-0.3,0.199-0.5,0.5-0.5h5.799c4.9,0,8.9,4,8.9,8.9c0,4.901-4,8.901-8.9,8.901h-5.799
			c-0.301,0-0.5-0.201-0.5-0.5V6.881z M153.01,21.781c3.699,0,6.4-2.7,6.4-6.5c0-3.7-2.701-6.4-6.4-6.4h-3.4v12.9H153.01z"/>
		<path d="M163.41,23.48l7.799-17.1c0.1-0.2,0.301-0.3,0.4-0.3h0.301c0.1,0,0.398,0.1,0.398,0.3l7.701,17.1
			c0.199,0.301-0.1,0.701-0.4,0.701h-1.6c-0.301,0-0.5-0.201-0.6-0.4l-1.602-3.5h-8.299c-0.5,1.199-1,2.3-1.5,3.5
			c-0.1,0.199-0.301,0.4-0.6,0.4h-1.602C163.41,24.182,163.209,23.881,163.41,23.48z M174.91,18.081l-3.102-7h-0.1l-3.1,7H174.91z"
			/>
		<path d="M182.609,6.581c0-0.3,0.199-0.5,0.5-0.5h0.6l11,12.7l0,0v-12c0-0.3,0.201-0.5,0.5-0.5h1.6c0.301,0,0.5,0.2,0.5,0.5v17.1
			c0,0.301-0.199,0.5-0.5,0.5h-0.699l-11-13.1l0,0v12.401c0,0.299-0.199,0.5-0.5,0.5h-1.6c-0.301,0-0.5-0.201-0.5-0.5V6.581H182.609
			z"/>
	</g>
	<g display="inline">
	</g>
	<g display="inline">
	</g>
	<g display="inline">
	</g>
	<g display="inline">
	</g>
	<g display="inline">
	</g>
	<g display="inline">
	</g>
</g>
</svg>
